PathFileType	4	(X/Y/Z)	./resultDataOpenSim/trcMotMarkerGrf/sub09/qtm-03-08.trc
DataRate	CameraRate	NumFrames	NumMarkers	Units	OrigDataRate	OrigDataStartFrame	OrigNumFrames
250.000000	250.000000	8	24	m	250.000000	243	485
Frame#	Time	L.Toe.Tip			R.Toe.Tip			L.Ankle.Lat			R.Ankle.Lat			L.Ankle.Med			R.Ankle.Med			L.Heel			R.Heel			L.Knee.Lat			R.Knee.Lat			L.Knee.Med			R.Knee.Med			L.Thigh.Upper			R.Thigh.Upper			L.ASIS			R.ASIS			V.Sacral			L.Acromium			R.Acromium			C7			L.Elbow			R.Elbow			L.Wrist.Lat			R.Wrist.Lat
		X1	Y1	Z1	X2	Y2	Z2	X3	Y3	Z3	X4	Y4	Z4	X5	Y5	Z5	X6	Y6	Z6	X7	Y7	Z7	X8	Y8	Z8	X9	Y9	Z9	X10	Y10	Z10	X11	Y11	Z11	X12	Y12	Z12	X13	Y13	Z13	X14	Y14	Z14	X15	Y15	Z15	X16	Y16	Z16	X17	Y17	Z17	X18	Y18	Z18	X19	Y19	Z19	X20	Y20	Z20	X21	Y21	Z21	X22	Y22	Z22	X23	Y23	Z23	X24	Y24	Z24

243	0.968	0.1475824	-0.010589495	0.025112571	0.25797977	0.10840737	0.14896631	0.0024994446	0.034921916	-0.022429922	0.12405161	0.16725706	0.16786739	0.020645975	0.0526411	0.074857292	0.15456766	0.19242682	0.074762704	-0.071539983	0.0086169013	0.020858779	0.0537087	0.16148916	0.11305358	0.10003438	0.4413529	-0.075195269	0.36159596	0.53967623	0.20833311	0.090128268	0.44271678	0.051080804	0.36160412	0.52785128	0.08180236	0.13655255	0.86476798	-0.12365818	0.12629829	0.87271258	0.24615234	0.22552783	0.94288141	-0.058918255	0.20529448	0.95486554	0.17930246	0.05555572	1.0119787	0.049212528	0.23887688	1.3998061	-0.10658219	0.1716904	1.4213893	0.214225	0.13861734	1.4564937	0.040148271	0.12775942	1.0438766	-0.18660953	0.014358964	1.0985545	0.29685873	0.34686215	0.88350842	-0.16876418	0.12573136	0.85771831	0.3625167
244	0.972	0.14760759	-0.010614902	0.025072483	0.27796193	0.10766342	0.1485727	0.0021040818	0.035655468	-0.021846411	0.1423086	0.16250451	0.16768974	0.020943264	0.053305773	0.07494166	0.17221953	0.18883693	0.074619419	-0.071627759	0.0095994281	0.021310743	0.072665823	0.15503585	0.11275234	0.099712619	0.44159657	-0.074580039	0.37024919	0.54179684	0.2086772	0.091265867	0.44315828	0.050723	0.37016383	0.53005834	0.082405164	0.14142337	0.86485903	-0.12349068	0.13217427	0.87286782	0.24644778	0.23128346	0.94270728	-0.058870842	0.21116749	0.95493128	0.17941743	0.06056134	1.0121544	0.048216081	0.24503248	1.3998123	-0.10635313	0.17764581	1.4211894	0.21442704	0.14463563	1.4564184	0.040280112	0.13512146	1.0433244	-0.18658426	0.019867763	1.0985705	0.29661196	0.35641205	0.8857258	-0.16744454	0.13056865	0.85771719	0.36341907
245	0.976	0.14764312	-0.010616501	0.025006807	0.29793487	0.10697091	0.14824024	0.0018177374	0.036345742	-0.021342655	0.16064829	0.15788097	0.1675037	0.021441474	0.053990213	0.074942426	0.18992625	0.18527535	0.074516459	-0.071650766	0.010574065	0.021631704	0.091945784	0.14858795	0.11228436	0.099608517	0.44188012	-0.074235614	0.37870864	0.54369936	0.20892095	0.092414663	0.44357235	0.050394128	0.3785766	0.53209697	0.082999668	0.146525	0.86484641	-0.12352317	0.13807118	0.87295654	0.24674397	0.2370991	0.9424874	-0.058787016	0.21704197	0.95492051	0.17952637	0.066022286	1.0122011	0.047977282	0.25117781	1.399758	-0.10612503	0.18364316	1.4209292	0.21463822	0.15068065	1.4562724	0.040486396	0.14255518	1.0427003	-0.18658807	0.025413275	1.0985184	0.29636688	0.36592318	0.88788869	-0.16613366	0.13543464	0.8576497	0.36428698
246	0.98	0.1476818	-0.010607819	0.024937408	0.31786148	0.10636924	0.14797422	0.001679561	0.036976753	-0.020969169	0.17914332	0.15335696	0.16728569	0.022067821	0.054666947	0.074922872	0.20771353	0.18174006	0.074429836	-0.071598062	0.011485343	0.022000482	0.11127756	0.14223302	0.1118377	0.09988742	0.44222351	-0.074220948	0.38694345	0.54544343	0.20914189	0.093525341	0.44390708	0.050127773	0.38685687	0.5339538	0.083581409	0.15174263	0.86476765	-0.12356816	0.14397309	0.87298273	0.2470394	0.24291961	0.94221282	-0.0586666	0.22291148	0.95483833	0.1796293	0.071752241	1.012133	0.048173403	0.25731053	1.3996457	-0.10589836	0.18966909	1.4206087	0.21485772	0.15674634	1.4560657	0.040718528	0.1501654	1.0420089	-0.18672496	0.030994937	1.0983988	0.29612893	0.37539482	0.88999713	-0.16483153	0.14033236	0.8575185	0.36512618
247	0.984	0.14771235	-0.010599219	0.024872514	0.33775025	0.10586927	0.14775427	0.0016267982	0.037574045	-0.020663597	0.1978885	0.14886783	0.16701537	0.022679636	0.055305356	0.074971914	0.22560355	0.17823569	0.074338863	-0.071498819	0.012349786	0.022476388	0.13046639	0.13604791	0.11157214	0.1004914	0.44259856	-0.074408819	0.39490672	0.54708837	0.20945333	0.094510974	0.44409182	0.049902013	0.39501284	0.53562246	0.084156386	0.15702772	0.86463599	-0.12358339	0.14986727	0.87294617	0.24733738	0.24867311	0.94185611	-0.058529139	0.22877663	0.95469241	0.17972823	0.077560344	1.011969	0.048474323	0.26343052	1.3994747	-0.10567413	0.1957101	1.4202289	0.21508287	0.16282845	1.4558107	0.040957173	0.15786675	1.0412583	-0.18689638	0.036612874	1.0982124	0.29590494	0.38482716	0.89204825	-0.16353715	0.14526631	0.85732372	0.36593918
248	0.988	0.14772765	-0.010597853	0.024809919	0.35763824	0.10543849	0.14756338	0.0015911042	0.038164471	-0.020358044	0.21696206	0.1443909	0.16668212	0.023209913	0.05590404	0.07512094	0.24361335	0.17477461	0.074239506	-0.071379789	0.013200941	0.023034722	0.14957188	0.13003212	0.11144316	0.10125874	0.44297046	-0.074655968	0.40259073	0.54863847	0.20991537	0.095142432	0.44410443	0.049648812	0.40304175	0.53710278	0.084734344	0.16232481	0.86444052	-0.12356587	0.15575882	0.87285338	0.24764638	0.25434113	0.94138382	-0.058417758	0.23463904	0.95448219	0.17982241	0.08336654	1.01172	0.048732599	0.26953888	1.3992439	-0.10545224	0.20177011	1.4197926	0.21531048	0.16892506	1.4555091	0.041207927	0.16549692	1.0404499	-0.18693137	0.042267454	1.0979582	0.29569865	0.39422224	0.89403881	-0.16225058	0.15023723	0.85706565	0.36672532
249	0.992	0.14772621	-0.01060648	0.024751612	0.37754504	0.10502597	0.14740818	0.0015409116	0.038763011	-0.020020636	0.23636185	0.13995084	0.16629456	0.023687005	0.056488791	0.075351995	0.26175868	0.17136635	0.074134434	-0.071252303	0.014059553	0.023639913	0.16879587	0.12414176	0.11129232	0.10205382	0.44332813	-0.074875374	0.41010775	0.5500673	0.21049478	0.095315729	0.44402994	0.049287454	0.41093677	0.53839456	0.085327893	0.16757041	0.86416458	-0.12347706	0.16165498	0.87271692	0.24796809	0.25999688	0.94079032	-0.05835913	0.24050009	0.95419772	0.17990879	0.089160727	1.0113957	0.048919458	0.27563826	1.3989557	-0.10523067	0.2078611	1.4193026	0.21554196	0.17503552	1.4551499	0.041484398	0.17301434	1.0395809	-0.18679363	0.04795593	1.0976345	0.29550552	0.4035827	0.89596765	-0.16097305	0.15525009	0.85674617	0.36748811
250	0.996	0.14770233	-0.010623677	0.024710757	0.39745962	0.10459869	0.1473108	0.0014820694	0.039371133	-0.019648437	0.25588316	0.13561004	0.16589418	0.024153285	0.057075477	0.075630992	0.28004077	0.16801901	0.074030802	-0.071121819	0.014935633	0.024260675	0.18825463	0.11835779	0.11101306	0.10283613	0.44368155	-0.075033357	0.41760644	0.55135549	0.21111669	0.095530815	0.44404455	0.048842948	0.41869358	0.53949156	0.085951126	0.1727471	0.86380149	-0.12330005	0.16755185	0.87254076	0.24829579	0.26573729	0.94011191	-0.058327946	0.246367	0.9538324	0.17998922	0.094944769	1.0110085	0.049050453	0.28173318	1.3986132	-0.10500589	0.21398539	1.4187592	0.21578064	0.18115801	1.4547188	0.041786846	0.18050682	1.038648	-0.18657722	0.053671006	1.0972433	0.29530945	0.41291095	0.89783609	-0.15970396	0.16031209	0.85636613	0.36823422
